<svg width="232" height="37" viewBox="0 0 232 37" fill="none" xmlns="http://www.w3.org/2000/svg">
<path d="M31.7188 37H21.1875L27.8125 28.6562L37.4062 16.9688L41.9375 0.0625H52.0938L47.2812 17.9688L31.7188 37ZM18.9375 37H6.09375L0.6875 17.9688L3.25 8.40625L0.90625 0.0625H15.6562L11.125 16.9688L14.4062 28.6562H25.5625L20.3125 35.2812H20.3438L18.9375 37ZM87.6875 26.3125H60.9375L83.0938 18.875L83.6562 16.8125H56.0625L53.875 9.40625H92.2188L93.75 14.75L92.0938 20.9375L87.6875 26.3125ZM83.6875 37H49.4375L47.9062 31.625L51.3125 18.875H60.8438L58 29.5625H89.7812L83.6875 37ZM133.844 37H124.312L129.719 16.8125H102.031L99.9375 9.40625H138.281L139.812 14.75L133.844 37ZM102.094 37H92.5312L97.375 18.875H106.938L102.094 37ZM176.938 37H141.531L140.031 31.625L146 9.40625H155.531L150.125 29.5625H181.875L181.312 31.625L176.938 37ZM182.406 27.5H172.875L177.75 9.40625H187.281L182.406 27.5ZM225.875 26.3125H199.125L221.281 18.875L221.844 16.8125H194.25L192.062 9.40625H230.406L231.938 14.75L230.281 20.9375L225.875 26.3125ZM221.875 37H187.625L186.094 31.625L189.5 18.875H199.031L196.188 29.5625H227.969L221.875 37Z" fill="white"/>
</svg>
