<svg width="48" height="49" viewBox="0 0 48 49" fill="none" xmlns="http://www.w3.org/2000/svg">
<g clip-path="url(#clip0_737_707)">
<path d="M44.4469 0.880859H3.54375C1.58437 0.880859 0 2.42773 0 4.34023V45.4121C0 47.3246 1.58437 48.8809 3.54375 48.8809H44.4469C46.4062 48.8809 48 47.3246 48 45.4215V4.34023C48 2.42773 46.4062 0.880859 44.4469 0.880859ZM14.2406 41.784H7.11563V18.8715H14.2406V41.784ZM10.6781 15.7496C8.39062 15.7496 6.54375 13.9027 6.54375 11.6246C6.54375 9.34648 8.39062 7.49961 10.6781 7.49961C12.9563 7.49961 14.8031 9.34648 14.8031 11.6246C14.8031 13.8934 12.9563 15.7496 10.6781 15.7496ZM40.9031 41.784H33.7875V30.6465C33.7875 27.9934 33.7406 24.5715 30.0844 24.5715C26.3812 24.5715 25.8187 27.4684 25.8187 30.459V41.784H18.7125V18.8715H25.5375V22.0027H25.6312C26.5781 20.2027 28.9031 18.2996 32.3625 18.2996C39.5719 18.2996 40.9031 23.0434 40.9031 29.2121V41.784Z" fill="white"/>
</g>
<defs>
<clipPath id="clip0_737_707">
<rect width="48" height="48" fill="white" transform="translate(0 0.880859)"/>
</clipPath>
</defs>
</svg>
